simulation
nRows=25
nColumns=15
endheader
time  TH_x TH_y TH_z SC_y  SC_z  SC_x  AC_y  AC_z  AC_x  GH_y  GH_z  GH_yy  EL_x  PS_y
0.000000  0.000000  0.000000  0.000000  -25.275519  15.185175  -10.000000  51.292395  23.690864  10.199714  30.560416  9.845379  4.467735  34.044993  110.983924
0.000256  0.000000  0.000000  0.000000  -25.275519  15.185175  -5.714286  52.363366  20.320871  7.343264  30.560416  9.845379  4.467735  34.044993  110.983924
0.000513  0.000000  0.000000  0.000000  -25.275519  15.185175  -1.428571  53.236481  16.906505  4.609478  30.560416  9.845379  4.467735  34.044993  110.983924
0.000769  0.000000  0.000000  0.000000  -25.275519  15.185175  2.857143  53.927225  13.457123  1.973534  30.560416  9.845379  4.467735  34.044993  110.983924
0.001026  0.000000  0.000000  0.000000  -25.275519  15.185175  7.142857  54.447665  9.981097  -0.587187  30.560416  9.845379  4.467735  34.044993  110.983924
0.001282  0.000000  0.000000  0.000000  -25.275519  15.185175  11.428571  54.806828  6.485951  -3.093611  30.560416  9.845379  4.467735  34.044993  110.983924
0.001539  0.000000  0.000000  0.000000  -25.275519  15.185175  15.714286  55.010878  2.978666  -5.565423  30.560416  9.845379  4.467735  34.044993  110.983924
0.001795  0.000000  0.000000  0.000000  -25.275519  15.185175  20.000000  55.063305  -0.534106  -8.021497  30.560416  9.845379  4.467735  34.044993  110.983924
0.002052  0.000000  0.000000  0.000000  -25.275519  15.185175  24.285714  54.964990  -4.045897  -10.480398  30.560416  9.845379  4.467735  34.044993  110.983924
0.002308  0.000000  0.000000  0.000000  -25.275519  15.185175  28.571429  54.714271  -7.550223  -12.960716  30.560416  9.845379  4.467735  34.044993  110.983924
0.002565  0.000000  0.000000  0.000000  -25.275519  15.185175  32.857143  54.306858  -11.040320  -15.481519  30.560416  9.845379  4.467735  34.044993  110.983924
0.002821  0.000000  0.000000  0.000000  -25.275519  15.185175  37.142857  53.735716  -14.509068  -18.062835  30.560416  9.845379  4.467735  34.044993  110.983924
0.003078  0.000000  0.000000  0.000000  -25.275519  15.185175  41.428571  52.990956  -17.948724  -20.726041  30.560416  9.845379  4.467735  34.044993  110.983924
0.003334  0.000000  0.000000  0.000000  -25.275519  15.185175  45.714286  52.059479  -21.350654  -23.494377  30.560416  9.845379  4.467735  34.044993  110.983924
0.003591  0.000000  0.000000  0.000000  -25.275519  15.185175  50.000000  50.924728  -24.705091  -26.393437  30.560416  9.845379  4.467735  34.044993  110.983924
0.003847  0.000000  0.000000  0.000000  -8.671186  17.524707  -10.000000  48.052208  19.604597  12.581432  31.124864  4.688880  -2.032108  17.479139  126.119596
0.004104  0.000000  0.000000  0.000000  -8.671186  17.524707  -5.714286  48.975066  16.393340  9.596650  31.124864  4.688880  -2.032108  17.479139  126.119596
0.004360  0.000000  0.000000  0.000000  -8.671186  17.524707  -1.428571  49.711462  13.141369  6.709380  31.124864  4.688880  -2.032108  17.479139  126.119596
0.004617  0.000000  0.000000  0.000000  -8.671186  17.524707  2.857143  50.272277  9.858043  3.898041  31.124864  4.688880  -2.032108  17.479139  126.119596
0.004873  0.000000  0.000000  0.000000  -8.671186  17.524707  7.142857  50.665786  6.551913  1.142371  31.124864  4.688880  -2.032108  17.479139  126.119596
0.005130  0.000000  0.000000  0.000000  -8.671186  17.524707  11.428571  50.897794  3.230957  -1.576906  31.124864  4.688880  -2.032108  17.479139  126.119596
0.005386  0.000000  0.000000  0.000000  -8.671186  17.524707  15.714286  50.971707  -0.097210  -4.278418  31.124864  4.688880  -2.032108  17.479139  126.119596
0.005642  0.000000  0.000000  0.000000  -8.671186  17.524707  20.000000  50.888614  -3.425164  -6.980458  31.124864  4.688880  -2.032108  17.479139  126.119596
0.005899  0.000000  0.000000  0.000000  -8.671186  17.524707  24.285714  50.647303  -6.745469  -9.701353  31.124864  4.688880  -2.032108  17.479139  126.119596
0.006155  0.000000  0.000000  0.000000  -8.671186  17.524707  28.571429  50.244190  -10.050490  -12.459727  31.124864  4.688880  -2.032108  17.479139  126.119596
